# xmcd
#
# Track frame offsets: 
#        150
#        5115
#        22048
#        31129
#        45184
#        60437
#        68765
#        79417
#        98561
#        107615
#        117163
#        129662
#        149578
#        165863
#        184563
#        200862
#        211421
#        223653
#        235263
#        250366
#        263716
#        274537
#        281647
#        302494
#
# Disc length: 4374 seconds
#
# Revision: 0
# Processed by: cddbd v1.5.2PL0 Copyright (c) Steve Scherf et al.
# Submitted via: ExactAudioCopy v1.0b2
#
DISCID=53111418
DTITLE=DJ　SASA with Wicked Friends - 琉球ドライビング
DYEAR=2013
DGENRE=Musical
TTITLE0=不明なアーティスト - INTRO
TTITLE1=不明なアーティスト - sayonaranonatu
TTITLE2=不明なアーティスト - Choo choo train
TTITLE3=不明なアーティスト - sabotennohana
TTITLE4=不明なアーティスト - tuyokuhakanaimonotati
TTITLE5=不明なアーティスト - si-zun in za san
TTITLE6=不明なアーティスト - simayakara-
TTITLE7=不明なアーティスト - annma-
TTITLE8=不明なアーティスト - tyontyon kijimuna-
TTITLE9=不明なアーティスト - thinsagunuhana
TTITLE10=不明なアーティスト - nagaiaida
TTITLE11=不明なアーティスト - hana
TTITLE12=不明なアーティスト - simauta
TTITLE13=不明なアーティスト - sayonara
TTITLE14=不明なアーティスト - tiisanakoinouta
TTITLE15=不明なアーティスト - sinnmatyunutakara
TTITLE16=不明なアーティスト - miraihe
TTITLE17=不明なアーティスト - tinnnukujyuusii
TTITLE18=不明なアーティスト - LOVELOVELOVE
TTITLE19=不明なアーティスト - kuganinohana
TTITLE20=不明なアーティスト - asatoyayunta
TTITLE21=不明なアーティスト - OUTRO
TTITLE22=不明なアーティスト - sayonaranonatu
TTITLE23=不明なアーティスト - kuganinohana full Version
EXTD=
EXTT0=
EXTT1=
EXTT2=
EXTT3=
EXTT4=
EXTT5=
EXTT6=
EXTT7=
EXTT8=
EXTT9=
EXTT10=
EXTT11=
EXTT12=
EXTT13=
EXTT14=
EXTT15=
EXTT16=
EXTT17=
EXTT18=
EXTT19=
EXTT20=
EXTT21=
EXTT22=
EXTT23=
PLAYORDER=
